<svg xmlns="http://www.w3.org/2000/svg" viewBox="0 0 24 24">
  <path d="M8 19.1c0 .1-.1.2-.3.2-.2 0-.3-.1-.3-.2s.2-.1.4-.1.2 0 .2.1zm-1.5-.2c0 .1.1.2.2.2.1.1.2 0 .3-.1 0-.1-.1-.2-.2-.3-.1.1-.2.1-.3.2zm2.2-.1c-.1 0-.2.1-.2.2s.1.2.3.1.2 0 .1-.1-.1-.2-.2-.2zM11.8.3C5.4.2.1 5.2 0 11.7v.5c0 5.2 3.3 9.9 8.2 11.6.6 0 .8-.4.8-.7v-3s-3.4.7-4.1-1.4c0 0-.6-1.4-1.3-1.8 0 0-1.1-.8.1-.7.8.1 1.5.6 1.9 1.2.7 1.2 2.2 1.7 3.5 1h.1c.1-.6.3-1.2.8-1.6-2.7-.3-5.4-.7-5.4-5.3-.1-1.1.4-2.1 1.1-2.9-.5-1.1-.5-2.2 0-3.3C6.7 5 9 6.6 9 6.6c2-.5 4.1-.5 6.1 0 0 0 2.3-1.6 3.3-1.3.4 1 .5 2.2.1 3.3.8.7 1.3 1.8 1.2 2.8 0 4.7-2.9 5-5.6 5.3.6.6.9 1.4.8 2.2v4c0 .3.2.7.8.6 4.9-1.7 8.2-6.4 8.1-11.6C23.8 5.3 18.4.1 11.9.1c.1.2 0 .2-.1.2zM4.7 17c-.1 0 0 .2 0 .3s.2.1.3 0 0-.2 0-.3-.2-.1-.3 0zm-.5-.4c0 .1 0 .1.1.2h.2c0-.1 0-.1-.1-.2s-.2-.1-.2 0zm1.5 1.7c-.1.1 0 .2.1.3.1.1.3.1.3 0s0-.2-.1-.3c0 0-.2-.1-.3 0zm-.5-.7c-.1 0-.1.2 0 .3s.2.2.3.1c.1-.1.1-.2 0-.3-.1-.1-.2-.2-.3-.1z"/>
</svg>