<svg xmlns="http://www.w3.org/2000/svg" viewBox="0 0 24 24">
  <path d="M6.28 4.7L4.32 2.74 2.78 4.28l1.95 1.96L6.28 4.7zm-3.01 6.2H0v2.19h3.27V10.9zM13.09 0h-2.18v3.23h2.18V0zm8.13 4.28l-1.54-1.55-1.95 1.97 1.54 1.55 1.95-1.97zm-3.5 15.02l.55.55 1.4 1.42 1.54-1.55-1.96-1.96-1.53 1.54zm3.01-8.4v2.19H24V10.9h-3.27zM12 5.42c-3.61 0-6.55 2.94-6.55 6.57s2.93 6.57 6.55 6.57 6.55-2.94 6.55-6.57c-.01-3.62-2.94-6.56-6.55-6.57zM10.91 24h2.18v-3.23h-2.18V24zm-8.13-4.29l1.54 1.55 1.95-1.97-1.54-1.55-1.95 1.97z"/>
</svg>
