<svg version="1.1" id="textLayer" xmlns="http://www.w3.org/2000/svg" x="0" y="0" viewBox="0 0 480 116" xml:space="preserve">
  <g id="textGroup">
    <path id="Doro-nyong_s" class="st0" d="M0 1.16h15.06c3.32-.03 6.63.41 9.82 1.32 2.84.8 5.48 2.21 7.73 4.14a19.12 19.12 0 015.06 7.09c1.29 3.23 1.91 6.7 1.83 10.18.07 3.4-.55 6.79-1.83 9.94a19.242 19.242 0 01-5.06 7.06 20.78 20.78 0 01-7.77 4.17c-3.2.93-6.52 1.39-9.86 1.36H0V1.16zm14.85 39.41c5.62 0 10-1.39 13.13-4.17 3.13-2.78 4.7-6.91 4.69-12.38 0-5.52-1.51-9.74-4.52-12.65s-7.52-4.38-13.5-4.38H6.48v33.59l8.37-.01zm52.6 6.99c-3.11.03-6.2-.61-9.05-1.87-2.74-1.2-5.21-2.93-7.29-5.08a23.432 23.432 0 01-4.86-7.57 24.619 24.619 0 01-1.76-9.29c-.03-3.17.57-6.32 1.76-9.27a23.84 23.84 0 014.83-7.53c2.07-2.16 4.55-3.89 7.29-5.08C61.23.62 64.33-.02 67.45 0c3.12-.02 6.22.61 9.08 1.87 2.75 1.2 5.24 2.93 7.33 5.08 2.09 2.17 3.74 4.73 4.86 7.53 1.18 2.94 1.78 6.09 1.76 9.27.02 3.18-.57 6.34-1.76 9.29a23.495 23.495 0 01-4.86 7.56 22.818 22.818 0 01-7.33 5.08 21.835 21.835 0 01-9.08 1.88zm0-6.1c2.32.03 4.61-.45 6.72-1.43 1.96-.92 3.71-2.23 5.13-3.87 1.44-1.66 2.55-3.59 3.27-5.66.77-2.19 1.16-4.5 1.15-6.82.02-2.35-.37-4.68-1.15-6.89-.73-2.08-1.84-4-3.27-5.66a15.086 15.086 0 00-5.13-3.83 15.7 15.7 0 00-6.72-1.39c-2.3-.04-4.59.44-6.68 1.39-1.95.9-3.69 2.21-5.1 3.83a17.346 17.346 0 00-3.27 5.66c-.78 2.21-1.16 4.54-1.15 6.89-.01 2.32.37 4.63 1.15 6.82.73 2.08 1.84 4 3.27 5.66 1.42 1.63 3.15 2.94 5.1 3.87 2.09.98 4.38 1.46 6.68 1.43zm29.84-40.3h14.38c2.48-.07 4.96.34 7.29 1.19 1.8.67 3.44 1.71 4.83 3.05 1.2 1.19 2.13 2.64 2.7 4.24.56 1.54.84 3.17.84 4.82.05 2.7-.65 5.36-2.02 7.67a12.114 12.114 0 01-6.28 4.95l10.53 19.34h-7.29l-9.65-18.52h-9.05v18.52h-6.28V1.16zm14.93 21.23c2.32.18 4.61-.58 6.38-2.1a7.554 7.554 0 002.13-5.63 7.43 7.43 0 00-2.3-5.8 9.106 9.106 0 00-6.35-2.07h-8.51v15.6h8.65zm42.74 25.17c-3.11.03-6.2-.61-9.05-1.87-2.74-1.2-5.21-2.93-7.29-5.08a23.495 23.495 0 01-4.86-7.56 24.619 24.619 0 01-1.76-9.29c-.03-3.17.57-6.32 1.76-9.27a23.84 23.84 0 014.83-7.53c2.07-2.16 4.55-3.89 7.29-5.08 2.86-1.25 5.96-1.89 9.08-1.87 3.12-.02 6.22.61 9.08 1.87 2.75 1.2 5.24 2.93 7.33 5.08 2.09 2.17 3.73 4.73 4.86 7.53a24.29 24.29 0 011.76 9.27c.02 3.18-.58 6.34-1.76 9.29a23.495 23.495 0 01-4.86 7.56 22.818 22.818 0 01-7.33 5.08 22.212 22.212 0 01-9.08 1.87zm0-6.1c2.32.03 4.61-.45 6.72-1.43 1.96-.92 3.71-2.23 5.13-3.87 1.44-1.66 2.55-3.59 3.27-5.66.77-2.19 1.16-4.5 1.15-6.82.02-2.35-.37-4.68-1.15-6.89-.73-2.08-1.84-4-3.27-5.66a15.086 15.086 0 00-5.13-3.83 15.7 15.7 0 00-6.72-1.39c-2.3-.04-4.59.44-6.68 1.39-1.95.9-3.69 2.21-5.1 3.83a17.346 17.346 0 00-3.27 5.66c-.78 2.21-1.16 4.54-1.15 6.89-.01 2.32.38 4.63 1.15 6.82.73 2.08 1.84 4 3.27 5.66 1.42 1.63 3.15 2.94 5.1 3.87 2.08.98 4.37 1.46 6.68 1.43zM184.6 24.5h19.78v5.83H184.6V24.5zm28.22-23.34h6.55l24.58 35.35V1.16h6.35v45.25h-6.48l-24.64-35.42v35.42h-6.35l-.01-45.25zm57.59 25.03L254.89 1.16h7.22l11.75 19.34 11.75-19.34h6.95l-15.6 25.04v20.22h-6.55V26.19zm44.5 21.37c-3.11.03-6.2-.61-9.05-1.87-2.74-1.2-5.21-2.93-7.29-5.08a23.495 23.495 0 01-4.86-7.56 24.633 24.633 0 01-1.76-9.3c-.02-3.17.57-6.32 1.76-9.26a23.84 23.84 0 014.83-7.53c2.07-2.16 4.55-3.89 7.29-5.08 2.86-1.25 5.96-1.89 9.08-1.87 3.12-.02 6.22.61 9.08 1.87 2.75 1.2 5.24 2.93 7.33 5.08 2.08 2.17 3.73 4.73 4.86 7.53a24.29 24.29 0 011.76 9.27c.02 3.18-.58 6.34-1.76 9.29a23.495 23.495 0 01-4.86 7.56 22.818 22.818 0 01-7.33 5.08 22.212 22.212 0 01-9.08 1.87zm0-6.1c2.32.03 4.61-.45 6.72-1.43 1.96-.92 3.7-2.24 5.13-3.87 1.44-1.66 2.55-3.59 3.27-5.66.77-2.19 1.16-4.5 1.15-6.82.02-2.35-.37-4.68-1.15-6.89-.73-2.08-1.84-4-3.27-5.66a15.086 15.086 0 00-5.13-3.83 15.7 15.7 0 00-6.72-1.39c-2.3-.04-4.59.44-6.68 1.39-1.95.9-3.69 2.21-5.1 3.83a17.346 17.346 0 00-3.27 5.66c-.78 2.21-1.16 4.54-1.15 6.89-.01 2.32.38 4.63 1.15 6.82.73 2.08 1.84 4 3.27 5.66 1.42 1.63 3.15 2.94 5.1 3.87 2.09.98 4.37 1.46 6.68 1.43zm29.84-40.3h6.55l24.58 35.35V1.16h6.35v45.25h-6.48L351.1 10.99v35.42h-6.35V1.16zm69.15 22.25h15.8v18.05c-.92.82-1.9 1.57-2.94 2.24-1.21.78-2.5 1.43-3.85 1.93-1.59.6-3.23 1.05-4.9 1.36-2.01.36-4.04.53-6.08.51-3.25.05-6.48-.56-9.49-1.8a21.493 21.493 0 01-7.22-4.95 21.316 21.316 0 01-4.59-7.46 27.074 27.074 0 01-1.59-9.4c-.02-3.17.54-6.33 1.65-9.29 1.04-2.8 2.61-5.37 4.63-7.56a21.75 21.75 0 017.12-5.08 22.34 22.34 0 019.22-1.87c2.17-.03 4.33.26 6.41.85 1.74.5 3.41 1.23 4.96 2.17 1.32.8 2.53 1.77 3.61 2.88.9.93 1.74 1.93 2.5 2.99l-4.59 3.93c-.6-.84-1.25-1.65-1.96-2.41-.8-.87-1.71-1.63-2.69-2.27a15.76 15.76 0 00-3.54-1.69c-1.47-.47-3.01-.7-4.56-.68-2.31-.04-4.59.45-6.68 1.43-1.93.91-3.65 2.23-5.03 3.87a17.328 17.328 0 00-3.17 5.73c-.75 2.24-1.13 4.59-1.11 6.95-.03 2.45.38 4.89 1.22 7.19.75 2.07 1.91 3.97 3.41 5.59 1.46 1.56 3.22 2.8 5.17 3.66 2.07.9 4.3 1.35 6.55 1.32 2.25.05 4.49-.25 6.65-.88 1.7-.52 3.29-1.35 4.69-2.44v-9.23h-9.58v-5.64zm22.82-22.25h5.81v15h-5.81v-15zm15.19 34.26c.63.72 1.34 1.46 2.13 2.2.81.76 1.71 1.44 2.67 2 1.04.61 2.15 1.09 3.31 1.43 1.29.37 2.64.56 3.98.54 2.48.15 4.94-.57 6.95-2.04a6.697 6.697 0 002.49-5.49c.13-2.24-.96-4.38-2.84-5.6a24.419 24.419 0 00-8.17-3.02c-1.81-.37-3.58-.94-5.27-1.69-1.5-.67-2.88-1.59-4.08-2.71a11.556 11.556 0 01-2.67-3.77c-.65-1.53-.97-3.19-.95-4.85-.01-1.63.31-3.25.95-4.75.64-1.51 1.61-2.85 2.84-3.93 1.39-1.2 2.99-2.13 4.73-2.71 2.11-.71 4.32-1.06 6.55-1.02 1.93-.04 3.85.2 5.71.71 1.43.4 2.8.98 4.08 1.73.99.57 1.9 1.28 2.7 2.1.68.72 1.19 1.31 1.55 1.76l-4.32 4c-.27-.32-.68-.73-1.22-1.26-.63-.59-1.32-1.1-2.06-1.53-.91-.53-1.89-.95-2.9-1.26-1.24-.36-2.53-.53-3.81-.51-1.26-.03-2.52.17-3.71.58-.94.33-1.81.84-2.57 1.49-.64.57-1.15 1.28-1.48 2.08a5.89 5.89 0 00-.47 2.31 5.54 5.54 0 00.7 2.88c.52.84 1.23 1.56 2.06 2.1 1.04.67 2.16 1.2 3.34 1.55 1.33.43 2.85.85 4.56 1.26 1.67.41 3.31.94 4.9 1.59 1.57.64 3.01 1.53 4.29 2.65 1.28 1.13 2.3 2.52 3.01 4.07.79 1.85 1.17 3.85 1.11 5.87.02 1.86-.4 3.69-1.22 5.36-.81 1.63-1.95 3.07-3.34 4.24a15.23 15.23 0 01-5.03 2.78c-2.03.67-4.15 1.01-6.28.99-1.95.02-3.89-.23-5.77-.75-1.64-.46-3.22-1.1-4.73-1.9-1.33-.71-2.57-1.56-3.71-2.54-.96-.82-1.83-1.74-2.6-2.75l4.59-4.19z"/>
    <path id="Commission" class="st0" d="M51.58 104.64c-5.67 7.39-14.51 11.61-23.79 11.35-3.86.05-7.7-.66-11.29-2.09a25.892 25.892 0 01-8.77-5.79 26.243 26.243 0 01-5.69-8.86A30.568 30.568 0 010 87.9c-.04-3.86.64-7.7 2-11.31 1.27-3.36 3.2-6.43 5.68-9.01 2.5-2.58 5.5-4.6 8.81-5.96 3.59-1.45 7.43-2.18 11.29-2.13 4.41-.04 8.78.75 12.89 2.33 4.07 1.65 7.55 4.48 10.01 8.13l-9.37 9.5a17.867 17.867 0 00-5.37-4.91c-2.16-1.26-4.63-1.9-7.13-1.85-2.06-.03-4.1.35-6.01 1.13-1.69.7-3.21 1.77-4.45 3.14a13.894 13.894 0 00-2.76 4.71c-.65 1.87-.98 3.85-.96 5.83-.02 2.03.32 4.05 1 5.96.63 1.76 1.6 3.37 2.86 4.75 1.24 1.35 2.76 2.42 4.45 3.14 1.84.77 3.81 1.16 5.81 1.13 2.62.11 5.23-.46 7.57-1.65 2.22-1.34 4.17-3.11 5.73-5.19l9.53 9zm27.55 11.27c-3.8.04-7.57-.69-11.09-2.13a27.199 27.199 0 01-8.81-5.87c-2.52-2.55-4.5-5.59-5.81-8.94-1.41-3.6-2.12-7.44-2.08-11.31-.04-3.87.67-7.71 2.08-11.31 1.31-3.34 3.29-6.38 5.81-8.93 2.52-2.52 5.51-4.5 8.81-5.84a28.87 28.87 0 0111.09-2.09c3.81-.04 7.59.67 11.13 2.09 3.3 1.32 6.3 3.3 8.81 5.83 2.5 2.56 4.46 5.6 5.76 8.93 1.41 3.6 2.12 7.44 2.08 11.31.04 3.87-.66 7.71-2.08 11.31a26.79 26.79 0 01-5.77 8.94 26.601 26.601 0 01-8.81 5.88c-3.52 1.44-7.3 2.17-11.12 2.13zm0-13.36c1.92.03 3.82-.36 5.57-1.17 1.59-.75 3-1.83 4.13-3.18 1.15-1.4 2.03-3.01 2.57-4.75.59-1.87.89-3.83.88-5.79.01-1.96-.29-3.92-.88-5.79a14.17 14.17 0 00-2.56-4.76 12.12 12.12 0 00-4.13-3.18c-1.74-.8-3.65-1.2-5.57-1.17-1.92-.03-3.82.36-5.57 1.17-1.59.75-3 1.83-4.13 3.18a14.03 14.03 0 00-2.56 4.75c-.59 1.87-.89 3.83-.88 5.79-.01 1.96.29 3.92.88 5.79a14.03 14.03 0 002.56 4.75c1.13 1.35 2.54 2.44 4.13 3.19 1.74.8 3.64 1.2 5.56 1.17zm34.76-41.61h13.54l12.97 23.42 12.73-23.42h13.62l2.48 53.68h-14.34l-1.28-31.47-9.37 18.35h-7.77l-10.41-18.35-1.04 31.47h-13.61l2.48-53.68zm63.27 0h13.54l12.97 23.42 12.73-23.42h13.62l2.48 53.68h-14.34l-1.28-31.47-9.37 18.35h-7.77l-10.41-18.35-1.04 31.47h-13.62l2.49-53.68zm61.91 0h14.18v53.68h-14.17l-.01-53.68zm26.04 36.7c1.72 1.67 3.7 3.05 5.85 4.1 2.46 1.25 5.18 1.88 7.93 1.85.73 0 1.45-.07 2.16-.2.7-.12 1.38-.35 2-.68.57-.31 1.07-.75 1.44-1.29.4-.62.6-1.35.56-2.09a4.014 4.014 0 00-2.12-3.46 29.187 29.187 0 00-6.21-2.74l-2.97-.97c-1.72-.56-3.39-1.26-5.01-2.09-1.64-.83-3.16-1.87-4.53-3.1a14.252 14.252 0 01-3.24-4.27c-.86-1.79-1.29-3.76-1.24-5.75-.02-2.36.44-4.71 1.36-6.88.91-2.12 2.26-4.01 3.97-5.55a18.27 18.27 0 016.44-3.7c2.87-.93 5.87-1.38 8.89-1.33 2.4-.02 4.79.22 7.13.72 1.92.41 3.8 1.01 5.61 1.77 1.44.61 2.81 1.36 4.08 2.26.92.64 1.78 1.36 2.56 2.17l-7.21 9.18a29.267 29.267 0 00-5.85-3.42c-1.97-.87-4.1-1.32-6.25-1.33-.7 0-1.4.08-2.08.24-.66.15-1.29.39-1.88.72-.54.31-1.01.73-1.36 1.25-.36.56-.54 1.22-.52 1.89-.02.74.19 1.47.6 2.09.43.62.99 1.14 1.64 1.53.8.48 1.64.87 2.52 1.17.99.35 2.04.71 3.16 1.09l2.56.81c1.82.59 3.66 1.27 5.53 2.05 1.84.76 3.55 1.82 5.05 3.14 1.54 1.37 2.79 3.04 3.68 4.91a16.23 16.23 0 011.44 7.2c.02 2.39-.57 4.75-1.72 6.84a17.12 17.12 0 01-4.64 5.37 21.78 21.78 0 01-6.89 3.5 27.86 27.86 0 01-8.45 1.25c-4.56.13-9.11-.59-13.42-2.13-3.4-1.29-6.52-3.25-9.17-5.75l8.6-10.37zm45.33 0c1.72 1.67 3.7 3.05 5.85 4.1 2.46 1.25 5.18 1.88 7.93 1.85.73 0 1.45-.07 2.16-.2.7-.12 1.38-.35 2-.68.57-.31 1.07-.75 1.44-1.29.4-.62.6-1.35.56-2.09a4.014 4.014 0 00-2.12-3.46 29.187 29.187 0 00-6.21-2.74l-2.96-.97c-1.72-.56-3.39-1.26-5.01-2.09-1.64-.83-3.16-1.87-4.53-3.1a14.252 14.252 0 01-3.24-4.27c-.86-1.79-1.29-3.76-1.24-5.75-.02-2.36.44-4.71 1.36-6.88.91-2.12 2.26-4.01 3.97-5.55 1.87-1.66 4.07-2.92 6.45-3.7 2.87-.93 5.87-1.38 8.89-1.33 2.4-.02 4.79.22 7.13.72 1.92.41 3.8 1.01 5.61 1.77 1.44.61 2.81 1.36 4.08 2.26.92.64 1.78 1.36 2.56 2.17l-7.21 9.18a29.267 29.267 0 00-5.85-3.42c-1.97-.87-4.1-1.32-6.25-1.33-.7 0-1.4.08-2.08.24-.66.15-1.29.39-1.88.72-.54.31-1.01.73-1.36 1.25-.36.56-.54 1.22-.52 1.89-.02.74.19 1.47.6 2.09.43.62.99 1.14 1.64 1.53.8.48 1.64.87 2.52 1.17.99.35 2.04.71 3.16 1.09l2.56.81c1.82.59 3.66 1.27 5.53 2.05 1.84.76 3.55 1.82 5.05 3.14 1.54 1.37 2.79 3.04 3.68 4.91a16.23 16.23 0 011.44 7.2c.02 2.39-.57 4.75-1.72 6.84-1.16 2.1-2.74 3.93-4.65 5.37a21.78 21.78 0 01-6.89 3.5 27.86 27.86 0 01-8.45 1.25c-4.56.13-9.11-.59-13.42-2.13-3.4-1.29-6.52-3.25-9.17-5.75l8.59-10.37zm41.17-36.7h14.18v53.68h-14.17l-.01-53.68zm47.57 54.97c-3.8.04-7.57-.69-11.09-2.13a26.963 26.963 0 01-8.81-5.88 26.604 26.604 0 01-5.81-8.93c-1.41-3.6-2.12-7.44-2.08-11.31-.04-3.87.67-7.71 2.08-11.31 1.31-3.34 3.29-6.38 5.81-8.93 2.52-2.52 5.51-4.5 8.81-5.83a28.87 28.87 0 0111.09-2.09c3.81-.04 7.59.67 11.13 2.09 3.3 1.32 6.3 3.3 8.81 5.83 2.5 2.56 4.46 5.6 5.76 8.93 1.41 3.6 2.12 7.44 2.08 11.31.04 3.87-.67 7.71-2.08 11.31a26.878 26.878 0 01-5.76 8.93 26.601 26.601 0 01-8.81 5.88 28.85 28.85 0 01-11.13 2.13zm0-13.36c1.92.03 3.82-.36 5.57-1.17 1.59-.75 3-1.83 4.13-3.18a14.03 14.03 0 002.56-4.75c.59-1.87.89-3.83.88-5.79.01-1.96-.29-3.92-.88-5.79a14.03 14.03 0 00-2.56-4.75 12.12 12.12 0 00-4.13-3.18c-1.74-.8-3.65-1.2-5.57-1.17-1.92-.03-3.82.36-5.57 1.17-1.59.75-3 1.83-4.13 3.18a14.03 14.03 0 00-2.56 4.75c-.59 1.87-.89 3.83-.88 5.79-.01 1.96.29 3.92.88 5.79a14.03 14.03 0 002.56 4.75 12.12 12.12 0 004.13 3.18c1.75.8 3.65 1.2 5.57 1.17zm33.4-41.61h12.89l20.5 29.94V60.94H480v53.68h-12.09L446.6 83.8v30.82h-14.01V60.94z"/>
  </g>
</svg>