<svg version="1.1" id="logo_x5F_symbol" xmlns="http://www.w3.org/2000/svg" x="0" y="0" viewBox="0 0 128 128" xml:space="preserve">
  <style>
    .st0{fill:#a6de60}
  </style>
  <g id="logo_x5F_symbol_1_">
    <path id="_1" class="st0" d="M125.89 108.18c-1.68-.41-3.36-.86-4.99-1.34-16.56-4.8-29.18-12.09-38.78-20.6.91-1.3 1.63-2.73 2.13-4.23 3.28 2.82 6.82 5.32 10.56 7.49-.09.43-.19.86-.32 1.28-.48 1.45.3 3.01 1.75 3.5 1.45.48 3.01-.3 3.5-1.75l.03-.09c.03-.09.05-.17.08-.26a95.432 95.432 0 0021.05 7.23c1.49.35 2.97-.57 3.32-2.06.35-1.49-.57-2.97-2.06-3.32-.02 0-.03-.01-.05-.01a89.86 89.86 0 01-21.36-7.53c.29-6.72-1.23-13.4-4.4-19.34a30.982 30.982 0 00-19.81-15.12c-2.11-.56-4.26-.93-6.43-1.11a71.078 71.078 0 01-3.4-19.72c6.92 7.12 14.35 11.96 22.17 14.41 3.95 1.25 8.09 1.86 12.23 1.78 1.83 6.65 3.73 17.21 4.02 32.77a2.76 2.76 0 002.81 2.71c.82-.01 1.59-.39 2.1-1.03.88-1.09 21.42-26.8 12.83-43.66-2.5-5.15-7.52-8.62-13.22-9.13-4.24-.37-8.52.19-12.53 1.64-.88.29-1.56 1.01-1.8 1.91-.24.89-.01 1.83.61 2.51a26.62 26.62 0 013.4 6.73c-2.99-.1-5.94-.62-8.79-1.52-8.57-2.7-16.73-8.73-24.25-17.93a2.763 2.763 0 00-4.88 1.41 72.11 72.11 0 002.9 27.08c-1.86.15-3.7.44-5.51.88-3.6-9.85-5.73-20.18-6.35-30.65-.15-2.47-.13-3.91-.13-3.96a2.762 2.762 0 00-2.71-2.82 2.762 2.762 0 00-2.82 2.71c0 .07-.03 1.66.14 4.41.62 10.94 2.84 21.73 6.59 32.02-.93.39-1.86.81-2.77 1.28a37.156 37.156 0 00-16.6 16.9 28.583 28.583 0 00-2.54 18.03 26.981 26.981 0 0010.97 16.43c7.02 5 15.45 7.64 24.08 7.54 2.91 0 5.82-.28 8.68-.82 8.64-1.63 15.88-5.61 19.69-10.75 2.89 1.62 5.89 3.12 9.02 4.5-23.53 22.12-60.53 20.97-82.65-2.56S.42 43.51 23.95 21.39C46.97-.25 83.01.31 105.34 22.65a2.764 2.764 0 103.91-3.91c-24.99-24.99-65.52-24.99-90.51 0-24.99 24.99-24.99 65.52 0 90.51 24.99 24.99 65.52 24.99 90.51 0 .12-.12.22-.24.32-.38 3.16 1.21 6.43 2.3 9.8 3.28 1.7.49 3.46.96 5.21 1.39 1.48.36 2.98-.54 3.34-2.02.36-1.48-.54-2.98-2.02-3.34h-.01zm-7.95-67.47c4.7 9.23-2.42 23.06-7.6 31.14-.4-8.44-1.63-16.83-3.67-25.03 1.48-.28 2.93-.66 4.35-1.15a2.761 2.761 0 00-1.8-5.22c-1.36.46-2.75.81-4.17 1.04-.76-2.23-1.68-4.41-2.75-6.51 5.29-1.17 12.18-1.06 15.64 5.73zm-39.9 35.75c.91 1.05 2.1 2.43 0 5.91a82.235 82.235 0 01-7.02-8.12c.39-.12.8-.21 1.21-.26 2.24-.28 4.46.66 5.81 2.47zm13.46-6.63c2.24 4.16 3.51 8.78 3.71 13.5a58.872 58.872 0 01-22.88-26.56c.92.16 1.85.36 2.79.61A25.232 25.232 0 0191.5 69.83zm-25.33-13.5c1.41 3.63 3.14 7.14 5.17 10.47l-.67-.37.01-.02c-.79 1.22-1.81 2.27-3 3.1-2.6-3.99-4.87-8.19-6.79-12.54 1.74-.37 3.51-.58 5.28-.64zm8.13 51.09c-10.43 1.97-20.8-.12-28.46-5.74-9.23-6.77-11.74-17.1-6.72-27.62a31.877 31.877 0 0116.45-15.45 95.16 95.16 0 003.49 7.18 89.521 89.521 0 0021.68 26.54c3.02 2.5 6.19 4.81 9.5 6.92-3.06 3.78-9 6.85-15.94 8.17z"/>
    <path id="_2" class="st0" d="M54.43 72.6a8.17 8.17 0 00-6.08 2.67c-5.1 5.44-4.44 17.82-4.34 19.21a2.773 2.773 0 002.96 2.56 2.763 2.763 0 002.56-2.92c-.28-4.35.25-12.28 2.87-15.07.51-.6 1.26-.93 2.04-.92.8-.01 1.56.33 2.09.93 2.67 2.8 3.32 10.75 3.1 15.09a2.769 2.769 0 002.62 2.9h.14c1.47 0 2.68-1.15 2.76-2.62.07-1.39.55-13.75-4.61-19.18a8.355 8.355 0 00-6.11-2.65z"/>
    <path id="_3" class="st0" d="M31.03 38.04c1.78-.01 3.49.7 4.74 1.96a2.764 2.764 0 103.91-3.91c-4.78-4.78-12.52-4.77-17.3 0s-4.77 12.52 0 17.3c4.78 4.77 12.52 4.77 17.29 0a2.764 2.764 0 10-3.91-3.91c-2.62 2.61-6.86 2.61-9.48-.01s-2.6-6.85.02-9.47a6.733 6.733 0 014.73-1.96z"/>
  </g>
</svg>